# xmcd CD database file
#
# Track frame offsets:
#	150
#	16000
#	31622
#	47201
#	60489
#	81862
#	99975
#	115950
#	130959
#	150949
#	163534
#	181405
#	190526
#	211184
#	226344
#	240610
#	257773
#	278180
#	290160
#	306775
#
# Disc length: 4384 seconds
#
# Revision: 3
# Processed by: cddbd v1.5.2PL0 Copyright (c) Steve Scherf et al.
# Submitted via: CDex 1.51
#
DISCID=01111e14
DTITLE=Glee - Glee: The Music - Vol. 03
DYEAR=2010
DGENRE=Soundtrack
TTITLE0=Hello, Goodbye
TTITLE1=Gives You Hell
TTITLE2=Hello
TTITLE3=A House Is Not A Home
TTITLE4=One Less Bell To Answer - A House Is Not A Home
TTITLE5=Beautiful
TTITLE6=Home
TTITLE7=Physical
TTITLE8=Total Eclipse Of The Heart
TTITLE9=Lady Is A Tramp
TTITLE10=One
TTITLE11=Rose's Turn
TTITLE12=Dream On
TTITLE13=Safety Dance
TTITLE14=I Dreamed A Dream
TTITLE15=Loser
TTITLE16=Give Up The Funk
TTITLE17=Beth
TTITLE18=Poker Face
TTITLE19=Bad Romance
EXTD=YEAR: 2010
EXTT0=
EXTT1=
EXTT2=
EXTT3=
EXTT4=
EXTT5=
EXTT6=
EXTT7=
EXTT8=
EXTT9=
EXTT10=
EXTT11=
EXTT12=
EXTT13=
EXTT14=
EXTT15=
EXTT16=
EXTT17=
EXTT18=
EXTT19=
PLAYORDER=
